# xmcd CD database file
# Generated: Mon Jul 8 19:33:29 2002 by KSCD
# 
# Track frame offsets:
#       150
#       16387
#       30000
#       45285
#       62915
#       76107
#       93162
#       111355
#       128122
#       144590
#       159207
#       174140
#
# Disc length: 2515 seconds
#
# Revision: 1
# Processed by: cddbd v1.4PL0 Copyright (c) Steve Scherf et al.
# Submitted via: Kscd 1.3.2
#
DISCID=7f09d10c
DTITLE=Solid Gold - Wie beim ersten Mal
DYEAR=1900
DGENRE=
TTITLE0=Ciao goodbye meine Königin
TTITLE1=Wo bist Du am Ende der Nacht
TTITLE2=Sonnenschein über Korsika
TTITLE3=Ist unser Zauber schon verloren
TTITLE4=Es war Liebe pur
TTITLE5=Heut und für immer
TTITLE6=Ich sah mal Dein Bild auf Seite eins
TTITLE7=Viel zu nah
TTITLE8=Laß mich bitte nicht allein
TTITLE9=Tränen einer Nacht
TTITLE10=Denn mein Herz gehört nur Dir
TTITLE11=Ich träum nur mehr von Dir
EXTD=
EXTT0=
EXTT1=
EXTT2=
EXTT3=
EXTT4=
EXTT5=
EXTT6=
EXTT7=
EXTT8=
EXTT9=
EXTT10=
EXTT11=
PLAYORDER=
